<svg width="162" height="30" viewBox="0 0 162 30" fill="none" xmlns="http://www.w3.org/2000/svg">
<rect x="0.5" y="0.5" width="161" height="29" rx="14.5" fill="white"/>
<rect x="0.5" y="0.5" width="161" height="29" rx="14.5" stroke="#555555"/>
<path d="M47.88 21.71C45.075 21.71 42.81 19.7 42.81 15.995C42.81 12.335 45.15 10.205 47.97 10.205C49.38 10.205 50.505 10.865 51.225 11.615L50.055 13.04C49.485 12.485 48.855 12.11 48 12.11C46.335 12.11 45.075 13.55 45.075 15.92C45.075 18.35 46.2 19.79 47.97 19.79C48.915 19.79 49.665 19.34 50.25 18.695L51.42 20.09C50.505 21.155 49.32 21.71 47.88 21.71ZM55.5318 21.71C54.0318 21.71 52.5618 21.14 51.4818 20.105L52.7568 18.575C53.5368 19.31 54.6018 19.79 55.5768 19.79C56.7318 19.79 57.3318 19.295 57.3318 18.53C57.3318 17.705 56.6568 17.435 55.6668 17.015L54.1818 16.385C53.0718 15.935 51.9318 15.02 51.9318 13.415C51.9318 11.6 53.5368 10.205 55.7718 10.205C57.0618 10.205 58.3518 10.715 59.2518 11.63L58.1418 13.025C57.4218 12.44 56.6868 12.11 55.7718 12.11C54.7968 12.11 54.1818 12.545 54.1818 13.265C54.1818 14.06 54.9768 14.36 55.9218 14.735L57.3768 15.335C58.7118 15.89 59.5968 16.76 59.5968 18.35C59.5968 20.165 58.0818 21.71 55.5318 21.71ZM68.5905 21.71C65.7855 21.71 63.5205 19.7 63.5205 15.995C63.5205 12.335 65.8605 10.205 68.6805 10.205C70.0905 10.205 71.2155 10.865 71.9355 11.615L70.7655 13.04C70.1955 12.485 69.5655 12.11 68.7105 12.11C67.0455 12.11 65.7855 13.55 65.7855 15.92C65.7855 18.35 66.9105 19.79 68.6805 19.79C69.6255 19.79 70.3755 19.34 70.9605 18.695L72.1305 20.09C71.2155 21.155 70.0305 21.71 68.5905 21.71ZM73.4693 21.5V10.4H80.2793V12.245H75.6893V14.81H79.5743V16.685H75.6893V19.64H80.4443V21.5H73.4693ZM82.2478 21.5V10.4H84.4978L87.7228 16.325L88.8478 18.725H88.9228C88.8028 17.57 88.6228 16.085 88.6228 14.825V10.4H90.7378V21.5H88.4728L85.2628 15.56L84.1378 13.19H84.0628C84.1678 14.375 84.3478 15.77 84.3478 17.06V21.5H82.2478ZM95.2382 21.5V12.245H92.1032V10.4H100.593V12.245H97.4582V21.5H95.2382ZM101.958 21.5V10.4H108.768V12.245H104.178V14.81H108.063V16.685H104.178V19.64H108.933V21.5H101.958ZM110.737 21.5V10.4H114.592C116.917 10.4 118.762 11.21 118.762 13.76C118.762 16.235 116.917 17.315 114.592 17.315H112.957V21.5H110.737ZM112.957 15.56H114.382C115.822 15.56 116.602 14.945 116.602 13.76C116.602 12.575 115.822 12.17 114.382 12.17H112.957V15.56ZM116.767 21.5L114.187 16.745L115.732 15.35L119.242 21.5H116.767Z" fill="black"/>
</svg>
