<svg width="21" height="22" viewBox="0 0 21 22" fill="none" xmlns="http://www.w3.org/2000/svg">
<g clip-path="url(#clip0_4513_1236)">
<path d="M10.401 0C4.657 0 0.000976562 4.307 0.000976562 9.62C0.000976562 13.544 1.64499 15.42 3.89499 17.12H3.90598V21.735C3.90625 21.7839 3.92006 21.8317 3.94583 21.8733C3.9716 21.9148 4.00836 21.9484 4.05203 21.9703C4.09571 21.9923 4.1446 22.0017 4.1933 21.9976C4.242 21.9935 4.28863 21.976 4.328 21.947L8.272 19.017L8.35699 19.054C9.03125 19.178 9.71543 19.2403 10.401 19.24C16.145 19.24 20.801 14.933 20.801 9.62C20.801 4.307 16.145 0 10.401 0ZM6.91498 12.058C7.3954 12.0741 7.86759 11.9304 8.25757 11.6493C8.64754 11.3683 8.93325 10.9658 9.06998 10.505H10.578C10.4316 11.3624 9.98044 12.1381 9.30759 12.6893C8.63473 13.2405 7.78543 13.5302 6.91599 13.505C5.88164 13.505 4.88966 13.0941 4.15826 12.3627C3.42687 11.6313 3.01599 10.6393 3.01599 9.605C3.01599 8.57066 3.42687 7.57867 4.15826 6.84728C4.88966 6.11589 5.88164 5.705 6.91599 5.705C7.79574 5.68003 8.65437 5.97705 9.33066 6.54028C10.0069 7.10352 10.4544 7.89424 10.589 8.764H9.08899C8.97049 8.28414 8.6899 7.85994 8.29468 7.56311C7.89946 7.26628 7.41385 7.11506 6.91998 7.135C6.5932 7.12168 6.26721 7.17659 5.96283 7.29625C5.65845 7.41591 5.38236 7.59768 5.15213 7.82998C4.9219 8.06228 4.7426 8.34 4.62567 8.64545C4.50874 8.95089 4.45674 9.27734 4.47299 9.604C4.46842 9.9267 4.52857 10.2471 4.6499 10.5461C4.77123 10.8452 4.95127 11.1169 5.17938 11.3452C5.4075 11.5735 5.67907 11.7537 5.97803 11.8753C6.27699 11.9969 6.59728 12.0573 6.91998 12.053M16.856 13.353H15.47V10.242C15.4863 10.0969 15.4704 9.95007 15.4234 9.81187C15.3765 9.67366 15.2995 9.54753 15.1982 9.44247C15.0968 9.3374 14.9736 9.256 14.8372 9.20406C14.7007 9.15213 14.5545 9.13093 14.409 9.142C13.691 9.142 13.231 9.581 13.231 10.47V13.363H11.849V5.734H13.231V8.602C13.4087 8.34792 13.65 8.14494 13.9308 8.01333C14.2116 7.88172 14.522 7.82609 14.831 7.852C15.1 7.84214 15.368 7.88956 15.6173 7.9911C15.8666 8.09265 16.0914 8.246 16.277 8.441C16.4772 8.66001 16.6316 8.91688 16.731 9.19647C16.8305 9.47607 16.873 9.77274 16.856 10.069V13.353Z" fill="black"/>
</g>
<defs>
<clipPath id="clip0_4513_1236">
<rect width="20.801" height="22" fill="white"/>
</clipPath>
</defs>
</svg>
