<svg width="22" height="22" viewBox="0 0 22 22" fill="none" xmlns="http://www.w3.org/2000/svg">
<g clip-path="url(#clip0_4513_1230)">
<path d="M11 1.983C13.937 1.983 14.285 1.994 15.446 2.047C18.427 2.183 19.819 3.597 19.955 6.556C20.008 7.716 20.018 8.064 20.018 11.001C20.018 13.938 20.007 14.286 19.955 15.446C19.818 18.402 18.43 19.819 15.446 19.955C14.286 20.008 13.939 20.019 11 20.019C8.061 20.019 7.715 20.008 6.555 19.955C3.567 19.818 2.182 18.398 2.046 15.445C1.993 14.285 1.982 13.938 1.982 11C1.982 8.062 1.994 7.716 2.046 6.555C2.183 3.6 3.571 2.182 6.555 2.046C7.716 1.994 8.063 1.983 11 1.983ZM11 0C8.013 0 7.639 0.013 6.465 0.066C2.47 0.249 0.25 2.466 0.067 6.464C0.013 7.639 0 8.013 0 11C0 13.987 0.013 14.362 0.066 15.536C0.249 19.531 2.466 21.751 6.466 21.936C7.639 21.987 8.013 22 11 22C13.987 22 14.362 21.987 15.536 21.934C19.527 21.751 21.753 19.534 21.936 15.534C21.987 14.362 22 13.987 22 11C22 8.013 21.987 7.639 21.934 6.465C21.754 2.474 19.534 0.25 15.534 0.065C14.362 0.013 13.987 0 11 0ZM11 5.352C9.88269 5.352 8.79047 5.68333 7.86148 6.3041C6.93248 6.92486 6.20844 7.80717 5.78091 8.83945C5.35338 9.87173 5.24157 11.0076 5.45962 12.1034C5.67767 13.1993 6.21578 14.2058 7.00591 14.9958C7.79603 15.7858 8.80268 16.3237 9.89855 16.5416C10.9944 16.7594 12.1303 16.6474 13.1625 16.2197C14.1947 15.792 15.0769 15.0678 15.6975 14.1387C16.3181 13.2096 16.6492 12.1173 16.649 11C16.6487 9.50197 16.0535 8.06538 14.9941 7.0062C13.9347 5.94702 12.498 5.352 11 5.352ZM11 14.667C10.2747 14.667 9.56576 14.4519 8.96272 14.049C8.35969 13.6461 7.88968 13.0734 7.61213 12.4033C7.33459 11.7332 7.26197 10.9959 7.40346 10.2846C7.54495 9.57328 7.8942 8.91988 8.40704 8.40704C8.91988 7.8942 9.57328 7.54495 10.2846 7.40346C10.9959 7.26197 11.7332 7.33459 12.4033 7.61213C13.0734 7.88968 13.6461 8.35969 14.049 8.96272C14.4519 9.56576 14.667 10.2747 14.667 11C14.6671 11.4816 14.5724 11.9585 14.3881 12.4035C14.2039 12.8484 13.9338 13.2527 13.5933 13.5933C13.2527 13.9338 12.8484 14.2039 12.4035 14.3881C11.9585 14.5724 11.4816 14.6671 11 14.667ZM16.872 3.809C16.6109 3.8088 16.3556 3.88605 16.1384 4.03097C15.9212 4.1759 15.7518 4.38198 15.6518 4.62316C15.5517 4.86435 15.5254 5.12978 15.5762 5.38591C15.6271 5.64203 15.7527 5.87732 15.9373 6.06203C16.1218 6.24673 16.357 6.37255 16.6131 6.42356C16.8692 6.47458 17.1347 6.44849 17.3759 6.34862C17.6172 6.24874 17.8234 6.07955 17.9685 5.86246C18.1136 5.64536 18.191 5.39011 18.191 5.129C18.1907 4.77917 18.0517 4.44373 17.8044 4.19626C17.5572 3.9488 17.2218 3.80953 16.872 3.809Z" fill="black"/>
</g>
<defs>
<clipPath id="clip0_4513_1230">
<rect width="22" height="22" fill="white"/>
</clipPath>
</defs>
</svg>
